<svg width="52" height="47" viewBox="0 0 52 47" fill="none" xmlns="http://www.w3.org/2000/svg">
<path fill-rule="evenodd" clip-rule="evenodd" d="M1.52264 24.5625C0.606156 24.5625 0.17246 23.4323 0.853677 22.8192L25.5394 0.602042C25.9197 0.259767 26.497 0.259769 26.8773 0.602044L51.5631 22.8192C52.2443 23.4323 51.8106 24.5625 50.8941 24.5625H46.3125C45.7603 24.5625 45.3125 25.0102 45.3125 25.5625V45.3958C45.3125 45.9481 44.8648 46.3958 44.3125 46.3958H29.9375C29.3852 46.3958 28.9375 45.9481 28.9375 45.3958V31.0208C28.9375 30.4685 28.4898 30.0208 27.9375 30.0208H24.4792C23.9269 30.0208 23.4792 30.4685 23.4792 31.0208V45.3958C23.4792 45.9481 23.0315 46.3958 22.4792 46.3958H8.10419C7.5519 46.3958 7.10419 45.9481 7.10419 45.3958V25.5625C7.10419 25.0102 6.65647 24.5625 6.10419 24.5625H1.52264ZM39.8542 20.0681C39.8542 19.7846 39.7339 19.5144 39.5232 19.3248L26.8773 7.9435C26.497 7.60123 25.9197 7.60123 25.5394 7.9435L12.8936 19.3248C12.6829 19.5144 12.5625 19.7846 12.5625 20.068V39.9375C12.5625 40.4898 13.0103 40.9375 13.5625 40.9375H17.0209C17.5732 40.9375 18.0209 40.4898 18.0209 39.9375V25.5625C18.0209 25.0102 18.4686 24.5625 19.0209 24.5625H33.3959C33.9482 24.5625 34.3959 25.0102 34.3959 25.5625V39.9375C34.3959 40.4898 34.8436 40.9375 35.3959 40.9375H38.8542C39.4065 40.9375 39.8542 40.4898 39.8542 39.9375V20.0681Z" fill="#F8F8F8"/>
</svg>
