<svg width="51" height="47" viewBox="0 0 51 47" fill="none" xmlns="http://www.w3.org/2000/svg">
<path fill-rule="evenodd" clip-rule="evenodd" d="M25.5 5.3295C28.2795 2.0655 32.538 0 36.975 0C44.829 0 51 6.171 51 14.025C51 23.6561 42.3442 31.5051 29.2298 43.3972L29.1975 43.4265L25.5 46.7925L21.8025 43.452L21.7018 43.3605C8.62571 31.4778 0 23.6393 0 14.025C0 6.171 6.171 0 14.025 0C18.462 0 22.7205 2.0655 25.5 5.3295ZM25.5 39.9075L25.755 39.6525C37.893 28.662 45.9 21.3945 45.9 14.025C45.9 8.92497 42.075 5.09997 36.975 5.09997C33.048 5.09997 29.223 7.62447 27.897 11.118H23.1285C21.777 7.62447 17.952 5.09997 14.025 5.09997C8.92497 5.09997 5.09997 8.92497 5.09997 14.025C5.09997 21.3945 13.107 28.662 25.245 39.6525L25.5 39.9075Z" fill="#EA6363"/>
</svg>
