<svg width="51" height="51" viewBox="0 0 51 51" fill="none" xmlns="http://www.w3.org/2000/svg">
<path fill-rule="evenodd" clip-rule="evenodd" d="M25.5 0C18.4556 0 12.75 5.70563 12.75 12.75C12.75 19.7944 18.4556 25.5 25.5 25.5C32.5444 25.5 38.25 19.7944 38.25 12.75C38.25 5.70563 32.5444 0 25.5 0ZM31.875 12.75C31.875 9.24375 29.0063 6.375 25.5 6.375C21.9937 6.375 19.125 9.24375 19.125 12.75C19.125 16.2563 21.9937 19.125 25.5 19.125C29.0063 19.125 31.875 16.2563 31.875 12.75ZM44.625 41.4375C43.9875 39.1744 34.1063 35.0625 25.5 35.0625C16.8937 35.0625 7.0125 39.1744 6.375 41.4694V44.625H44.625V41.4375ZM0 41.4375C0 32.9587 16.9894 28.6875 25.5 28.6875C34.0106 28.6875 51 32.9587 51 41.4375V51H0V41.4375Z" fill="#F8F8F8"/>
</svg>
