<svg width="51" height="52" viewBox="0 0 51 52" fill="none" xmlns="http://www.w3.org/2000/svg">
<path fill-rule="evenodd" clip-rule="evenodd" d="M35.0327 32.9087H37.396L50.0801 45.6526C51.3066 46.8792 51.3066 48.8835 50.0801 50.11C48.8536 51.3365 46.8493 51.3365 45.6227 50.11L32.9087 37.396V35.0327L32.101 34.1951C27.9129 37.7849 22.199 39.6397 16.1262 38.6225C7.80977 37.2165 1.16857 30.2762 0.151448 21.8999C-1.40415 9.2457 9.2457 -1.40415 21.8999 0.151448C30.2762 1.16857 37.2165 7.80977 38.6225 16.1262C39.6397 22.199 37.7849 27.9129 34.1951 32.101L35.0327 32.9087ZM5.98489 19.4468C5.98489 26.8957 11.9979 32.9087 19.4468 32.9087C26.8957 32.9087 32.9087 26.8957 32.9087 19.4468C32.9087 11.9979 26.8957 5.98489 19.4468 5.98489C11.9979 5.98489 5.98489 11.9979 5.98489 19.4468Z" fill="#F8F8F8"/>
</svg>
