<svg width="55" height="55" viewBox="0 0 55 55" fill="none" xmlns="http://www.w3.org/2000/svg">
<path fill-rule="evenodd" clip-rule="evenodd" d="M37.0327 34.9087H39.396L52.0801 47.6526C53.3066 48.8792 53.3066 50.8835 52.0801 52.11C50.8536 53.3365 48.8493 53.3365 47.6227 52.11L34.9087 39.396V37.0327L34.101 36.1951C29.9129 39.7849 24.199 41.6397 18.1262 40.6225C9.80977 39.2165 3.16857 32.2762 2.15145 23.8999C0.595852 11.2457 11.2457 0.595852 23.8999 2.15145C32.2762 3.16857 39.2165 9.80977 40.6225 18.1262C41.6397 24.199 39.7849 29.9129 36.1951 34.101L37.0327 34.9087ZM7.98489 21.4468C7.98489 28.8957 13.9979 34.9087 21.4468 34.9087C28.8957 34.9087 34.9087 28.8957 34.9087 21.4468C34.9087 13.9979 28.8957 7.98489 21.4468 7.98489C13.9979 7.98489 7.98489 13.9979 7.98489 21.4468Z" fill="#F8F8F8"/>
<path d="M39.396 34.9087L40.4592 33.8506L40.0194 33.4087H39.396V34.9087ZM37.0327 34.9087L35.9915 35.9885L36.4273 36.4087H37.0327V34.9087ZM52.0801 47.6526L51.0169 48.7108L51.0194 48.7133L52.0801 47.6526ZM52.0801 52.11L53.1408 53.1707L53.1408 53.1707L52.0801 52.11ZM47.6227 52.11L46.5621 53.1707L46.5621 53.1707L47.6227 52.11ZM34.9087 39.396H33.4087V40.0173L33.8481 40.4567L34.9087 39.396ZM34.9087 37.0327H36.4087V36.4273L35.9885 35.9915L34.9087 37.0327ZM34.101 36.1951L35.1808 35.1539L34.1988 34.1356L33.1248 35.0562L34.101 36.1951ZM18.1262 40.6225L17.8762 42.1016L17.8784 42.1019L18.1262 40.6225ZM2.15145 23.8999L3.64051 23.7191L3.64024 23.7169L2.15145 23.8999ZM23.8999 2.15145L23.7169 3.64024L23.7191 3.64051L23.8999 2.15145ZM40.6225 18.1262L42.1019 17.8784L42.1016 17.8762L40.6225 18.1262ZM36.1951 34.101L35.0562 33.1248L34.1356 34.1988L35.1539 35.1808L36.1951 34.101ZM39.396 33.4087H37.0327V36.4087H39.396V33.4087ZM53.1433 46.5945L40.4592 33.8506L38.3329 35.9669L51.0169 48.7108L53.1433 46.5945ZM53.1408 53.1707C54.9531 51.3584 54.9531 48.4043 53.1408 46.592L51.0194 48.7133C51.6602 49.354 51.6602 50.4086 51.0194 51.0494L53.1408 53.1707ZM46.5621 53.1707C48.3744 54.983 51.3284 54.983 53.1408 53.1707L51.0194 51.0494C50.3787 51.6901 49.3241 51.6901 48.6834 51.0494L46.5621 53.1707ZM33.8481 40.4567L46.5621 53.1707L48.6834 51.0494L35.9694 38.3354L33.8481 40.4567ZM33.4087 37.0327V39.396H36.4087V37.0327H33.4087ZM33.0212 37.2363L33.829 38.0739L35.9885 35.9915L35.1808 35.1539L33.0212 37.2363ZM17.8784 42.1019C24.4124 43.1963 30.5696 41.1976 35.0772 37.334L33.1248 35.0562C29.2561 38.3722 23.9857 40.083 18.374 39.1431L17.8784 42.1019ZM0.662386 24.0807C1.75978 33.118 8.90658 40.5851 17.8762 42.1016L18.3763 39.1435C10.713 37.8479 4.57736 31.4343 3.64051 23.7191L0.662386 24.0807ZM24.0829 0.662655C10.4604 -1.01198 -1.01198 10.4604 0.662655 24.0829L3.64024 23.7169C2.20369 12.031 12.031 2.20369 23.7169 3.64024L24.0829 0.662655ZM42.1016 17.8762C40.5851 8.90658 33.118 1.75978 24.0807 0.662386L23.7191 3.64051C31.4343 4.57736 37.8479 10.713 39.1435 18.3763L42.1016 17.8762ZM37.334 35.0772C41.1976 30.5696 43.1963 24.4124 42.1019 17.8784L39.1431 18.374C40.083 23.9857 38.3722 29.2561 35.0562 33.1248L37.334 35.0772ZM38.0739 33.829L37.2363 33.0212L35.1539 35.1808L35.9915 35.9885L38.0739 33.829ZM21.4468 33.4087C14.8263 33.4087 9.48489 28.0673 9.48489 21.4468H6.48489C6.48489 29.7241 13.1694 36.4087 21.4468 36.4087V33.4087ZM33.4087 21.4468C33.4087 28.0673 28.0673 33.4087 21.4468 33.4087V36.4087C29.7241 36.4087 36.4087 29.7241 36.4087 21.4468H33.4087ZM21.4468 9.48489C28.0673 9.48489 33.4087 14.8263 33.4087 21.4468H36.4087C36.4087 13.1694 29.7241 6.48489 21.4468 6.48489V9.48489ZM9.48489 21.4468C9.48489 14.8263 14.8263 9.48489 21.4468 9.48489V6.48489C13.1694 6.48489 6.48489 13.1694 6.48489 21.4468H9.48489Z" fill="#F8F8F8"/>
</svg>
